<svg xmlns="http://www.w3.org/2000/svg" xmlns:xlink="http://www.w3.org/1999/xlink" width="500" zoomAndPan="magnify" viewBox="0 0 375 374.999991" height="500" preserveAspectRatio="xMidYMid meet" version="1.0"><defs><g/><clipPath id="07353975a4"><path d="M 171 157 L 281.5 157 L 281.5 187 L 171 187 Z M 171 157 " clip-rule="nonzero"/></clipPath><clipPath id="ba05b7605e"><path d="M 93.25 162 L 206 162 L 206 186 L 93.25 186 Z M 93.25 162 " clip-rule="nonzero"/></clipPath></defs><rect x="-37.5" width="450" fill="#ffffff" y="-37.499999" height="449.999989" fill-opacity="1"/><rect x="-37.5" width="450" fill="#ffffff" y="-37.499999" height="449.999989" fill-opacity="1"/><path fill="#1f4b8f" d="M 198.886719 151.238281 C 200.277344 157.074219 207.367188 160.371094 214.722656 158.601562 C 222.078125 156.832031 226.910156 150.671875 225.519531 144.835938 C 224.128906 139 217.039062 135.707031 209.6875 137.472656 C 202.332031 139.242188 197.496094 145.40625 198.886719 151.238281 " fill-opacity="1" fill-rule="nonzero"/><g clip-path="url(#07353975a4)"><path fill="#06a1db" d="M 171.789062 179.550781 C 195.007812 167.667969 213.738281 174.386719 231.527344 178.320312 C 251.839844 181.824219 268.851562 173.003906 281.5 157.617188 C 272.65625 178.308594 251.785156 189.230469 229.980469 185.289062 C 207.058594 179.160156 192.128906 175.09375 171.789062 179.550781 " fill-opacity="1" fill-rule="nonzero"/></g><g clip-path="url(#ba05b7605e)"><path fill="#0581b0" d="M 205.109375 165.34375 C 205.109375 165.34375 205 165.304688 204.78125 165.222656 C 204.566406 165.148438 204.242188 165.03125 203.8125 164.90625 C 203.386719 164.773438 202.855469 164.625 202.226562 164.46875 C 201.910156 164.390625 201.574219 164.308594 201.210938 164.226562 C 200.847656 164.152344 200.457031 164.066406 200.050781 163.988281 C 198.40625 163.667969 196.390625 163.367188 194.058594 163.179688 C 191.726562 162.988281 189.074219 162.933594 186.183594 163.058594 C 183.292969 163.199219 180.160156 163.519531 176.878906 164.117188 C 173.601562 164.71875 170.179688 165.589844 166.71875 166.746094 C 162.535156 168.144531 158.679688 169.882812 154.839844 171.984375 C 151.058594 174.050781 147.03125 175.664062 142.878906 176.800781 C 137.0625 178.390625 130.988281 179.050781 124.96875 178.714844 C 113.917969 178.101562 103.625 172.832031 94.910156 166.25 C 94.695312 166.085938 94.503906 165.929688 94.328125 165.796875 C 93.625 165.25 93.25 164.960938 93.25 164.960938 C 93.25 164.960938 93.316406 165.058594 93.449219 165.246094 C 93.578125 165.4375 93.773438 165.71875 94.03125 166.082031 C 94.160156 166.265625 94.304688 166.472656 94.46875 166.691406 C 94.636719 166.910156 94.816406 167.148438 95.015625 167.402344 C 95.214844 167.660156 95.429688 167.933594 95.65625 168.230469 C 95.898438 168.515625 96.152344 168.816406 96.425781 169.136719 C 96.953125 169.789062 97.59375 170.457031 98.28125 171.207031 C 98.632812 171.574219 99.007812 171.945312 99.398438 172.332031 C 101.179688 174.09375 103.109375 175.71875 105.15625 177.160156 C 105.730469 177.5625 106.3125 177.980469 106.9375 178.371094 C 109.40625 179.957031 112.25 181.476562 115.445312 182.691406 C 118.636719 183.90625 122.179688 184.796875 125.917969 185.253906 L 126.269531 185.300781 L 126.621094 185.332031 C 126.855469 185.351562 127.089844 185.371094 127.328125 185.394531 C 134.667969 186.027344 142.113281 184.796875 149.023438 182.296875 C 155.996094 179.777344 162.09375 175.53125 168.917969 172.664062 C 172.042969 171.351562 175.136719 170.238281 178.125 169.324219 C 181.113281 168.417969 183.988281 167.691406 186.679688 167.144531 C 188.023438 166.851562 189.324219 166.636719 190.566406 166.425781 C 191.1875 166.320312 191.792969 166.238281 192.382812 166.144531 C 192.976562 166.070312 193.550781 165.992188 194.109375 165.921875 C 196.347656 165.648438 198.316406 165.496094 199.945312 165.410156 C 200.761719 165.367188 201.492188 165.34375 202.132812 165.328125 C 202.765625 165.316406 203.3125 165.308594 203.753906 165.3125 C 204.191406 165.316406 204.535156 165.320312 204.761719 165.328125 C 204.992188 165.335938 205.109375 165.34375 205.109375 165.34375 " fill-opacity="1" fill-rule="nonzero"/></g><path fill="#1f4b8f" d="M 242.550781 133.0625 C 232.101562 128.765625 222.351562 122.839844 211.273438 120.1875 C 207.789062 119.355469 203.921875 118.765625 200.789062 120.515625 C 195.664062 123.375 195.367188 130.457031 193.515625 136.046875 C 190.171875 146.132812 180.1875 152.828125 169.863281 155.171875 C 152.8125 159.046875 135.800781 154.035156 118.785156 158.972656 C 131.84375 147.558594 151.230469 149 168.125 145.222656 C 172.183594 144.316406 176.367188 142.953125 179.175781 139.875 C 183.59375 135.035156 183.320312 127.542969 186.296875 121.699219 C 191.363281 111.757812 204.992188 108.992188 215.492188 112.65625 C 227.128906 116.726562 232.820312 126.679688 242.550781 133.0625 " fill-opacity="1" fill-rule="nonzero"/><path fill="#06a1db" d="M 119.988281 143.992188 C 119.265625 144.199219 118.246094 145.265625 117.609375 145.695312 C 116.503906 146.441406 115.40625 147.199219 114.339844 148 C 112.144531 149.636719 110.050781 151.4375 108.292969 153.554688 C 107.039062 155.066406 105.917969 157.109375 106.683594 158.925781 C 106.996094 159.667969 107.59375 160.257812 108.222656 160.761719 C 111.542969 163.433594 116.039062 164.714844 120.136719 165.546875 C 129.386719 167.421875 139.03125 167.539062 148.402344 168.65625 C 147.601562 168.5625 146.171875 169.167969 145.371094 169.316406 C 144.410156 169.496094 143.242188 169.703125 141.902344 169.921875 C 131.601562 171.605469 120.445312 172.351562 110.609375 168.183594 C 107.765625 166.976562 104.96875 165.34375 103.234375 162.777344 C 101.015625 159.492188 101.570312 155.949219 103.703125 152.847656 C 103.871094 152.621094 104.054688 152.410156 104.226562 152.195312 C 104.40625 151.984375 104.570312 151.765625 104.765625 151.578125 C 106.246094 149.996094 107.875 148.867188 109.402344 147.996094 C 110.9375 147.132812 112.390625 146.519531 113.679688 146.027344 C 114.96875 145.535156 116.101562 145.167969 117.035156 144.875 C 117.96875 144.578125 118.703125 144.367188 119.210938 144.214844 C 119.703125 144.074219 119.972656 143.996094 119.988281 143.992188 " fill-opacity="1" fill-rule="nonzero"/><g fill="#1f4b8f" fill-opacity="1"><g transform="translate(58.133646, 236.306132)"><g><path d="M 11.453125 0.53125 C 8.253906 0.53125 5.75 -0.222656 3.9375 -1.734375 C 2.132812 -3.253906 1.234375 -5.34375 1.234375 -8 L 8.109375 -8 C 8.109375 -7.0625 8.394531 -6.328125 8.96875 -5.796875 C 9.539062 -5.265625 10.332031 -5 11.34375 -5 C 12.21875 -5 12.898438 -5.171875 13.390625 -5.515625 C 13.890625 -5.859375 14.140625 -6.332031 14.140625 -6.9375 C 14.140625 -8.300781 12.65625 -9.28125 9.6875 -9.875 C 4.164062 -10.925781 1.40625 -13.519531 1.40625 -17.65625 C 1.40625 -19.988281 2.242188 -21.828125 3.921875 -23.171875 C 5.609375 -24.523438 7.910156 -25.203125 10.828125 -25.203125 C 12.847656 -25.203125 14.601562 -24.859375 16.09375 -24.171875 C 17.582031 -23.492188 18.734375 -22.523438 19.546875 -21.265625 C 20.359375 -20.015625 20.765625 -18.539062 20.765625 -16.84375 L 14.0625 -16.84375 C 14.0625 -17.789062 13.789062 -18.507812 13.25 -19 C 12.707031 -19.488281 11.945312 -19.734375 10.96875 -19.734375 C 10.144531 -19.734375 9.484375 -19.5625 8.984375 -19.21875 C 8.492188 -18.882812 8.25 -18.410156 8.25 -17.796875 C 8.25 -17.160156 8.578125 -16.628906 9.234375 -16.203125 C 9.890625 -15.785156 11.003906 -15.398438 12.578125 -15.046875 C 15.585938 -14.390625 17.78125 -13.429688 19.15625 -12.171875 C 20.53125 -10.921875 21.21875 -9.269531 21.21875 -7.21875 C 21.21875 -4.800781 20.359375 -2.90625 18.640625 -1.53125 C 16.929688 -0.15625 14.535156 0.53125 11.453125 0.53125 Z M 11.453125 0.53125 "/></g></g></g><g fill="#1f4b8f" fill-opacity="1"><g transform="translate(87.699481, 236.306132)"><g><path d="M 8.109375 0 L 0.171875 -24.671875 L 7.71875 -24.671875 L 9.453125 -19.171875 L 11.953125 -11.484375 L 14.453125 -19.171875 L 16.28125 -24.671875 L 23.046875 -24.671875 L 27.421875 -11.28125 L 29.96875 -19.171875 L 31.6875 -24.671875 L 39.15625 -24.671875 L 31.234375 0 L 24.140625 0 L 19.671875 -13.71875 L 15.1875 0 Z M 8.109375 0 "/></g></g></g><g fill="#1f4b8f" fill-opacity="1"><g transform="translate(134.073996, 236.306132)"><g><path d="M 2.609375 0 L 2.609375 -24.671875 L 9.734375 -24.671875 L 9.734375 0 Z M 2.609375 0 "/></g></g></g><g fill="#1f4b8f" fill-opacity="1"><g transform="translate(153.455955, 236.306132)"><g><path d="M 2.609375 0 L 2.609375 -24.671875 L 8.421875 -24.671875 L 16.703125 -12.9375 L 25.03125 -24.671875 L 30.8125 -24.671875 L 30.8125 0 L 23.765625 0 L 23.765625 -12.484375 L 19.03125 -5.84375 L 14.421875 -5.84375 L 9.65625 -12.515625 L 9.65625 0 Z M 2.609375 0 "/></g></g></g><g fill="#1f4b8f" fill-opacity="1"><g transform="translate(193.910428, 236.306132)"><g><path d="M 2.609375 0 L 2.609375 -24.671875 L 8.421875 -24.671875 L 16.703125 -12.9375 L 25.03125 -24.671875 L 30.8125 -24.671875 L 30.8125 0 L 23.765625 0 L 23.765625 -12.484375 L 19.03125 -5.84375 L 14.421875 -5.84375 L 9.65625 -12.515625 L 9.65625 0 Z M 2.609375 0 "/></g></g></g><g fill="#1f4b8f" fill-opacity="1"><g transform="translate(234.364901, 236.306132)"><g><path d="M 2.609375 0 L 2.609375 -24.671875 L 9.734375 -24.671875 L 9.734375 0 Z M 2.609375 0 "/></g></g></g><g fill="#1f4b8f" fill-opacity="1"><g transform="translate(253.746854, 236.306132)"><g><path d="M 2.609375 0 L 2.609375 -24.671875 L 8.421875 -24.671875 L 17.796875 -12.15625 L 17.796875 -24.671875 L 24.8125 -24.671875 L 24.8125 0 L 19.03125 0 L 9.65625 -12.578125 L 9.65625 0 Z M 2.609375 0 "/></g></g></g><g fill="#1f4b8f" fill-opacity="1"><g transform="translate(288.246051, 236.306132)"><g><path d="M 14.375 0.53125 C 11.769531 0.53125 9.472656 -0.0078125 7.484375 -1.09375 C 5.503906 -2.175781 3.960938 -3.6875 2.859375 -5.625 C 1.753906 -7.5625 1.203125 -9.800781 1.203125 -12.34375 C 1.203125 -14.875 1.753906 -17.101562 2.859375 -19.03125 C 3.960938 -20.957031 5.492188 -22.46875 7.453125 -23.5625 C 9.421875 -24.65625 11.695312 -25.203125 14.28125 -25.203125 C 16.363281 -25.203125 18.273438 -24.835938 20.015625 -24.109375 C 21.753906 -23.378906 23.226562 -22.351562 24.4375 -21.03125 C 25.65625 -19.71875 26.5 -18.160156 26.96875 -16.359375 L 19.390625 -16.359375 C 18.921875 -17.128906 18.242188 -17.738281 17.359375 -18.1875 C 16.472656 -18.632812 15.476562 -18.859375 14.375 -18.859375 C 13.15625 -18.859375 12.082031 -18.582031 11.15625 -18.03125 C 10.226562 -17.476562 9.503906 -16.710938 8.984375 -15.734375 C 8.472656 -14.765625 8.21875 -13.632812 8.21875 -12.34375 C 8.21875 -11.09375 8.460938 -9.972656 8.953125 -8.984375 C 9.441406 -8.003906 10.148438 -7.226562 11.078125 -6.65625 C 12.015625 -6.09375 13.140625 -5.8125 14.453125 -5.8125 C 15.859375 -5.8125 17.035156 -6.132812 17.984375 -6.78125 C 18.941406 -7.425781 19.597656 -8.269531 19.953125 -9.3125 L 13.140625 -9.3125 L 13.140625 -14.3125 L 27.421875 -14.3125 C 27.609375 -12.144531 27.4375 -10.15625 26.90625 -8.34375 C 26.382812 -6.539062 25.539062 -4.972656 24.375 -3.640625 C 23.207031 -2.316406 21.773438 -1.289062 20.078125 -0.5625 C 18.390625 0.164062 16.488281 0.53125 14.375 0.53125 Z M 14.375 0.53125 "/></g></g></g><g fill="#1f4b8f" fill-opacity="1"><g transform="translate(158.138403, 261.938889)"><g><path d="M 4.765625 -8.734375 C 5.515625 -8.734375 6.171875 -8.609375 6.734375 -8.359375 C 7.296875 -8.109375 7.726562 -7.75 8.03125 -7.28125 C 8.332031 -6.8125 8.484375 -6.257812 8.484375 -5.625 C 8.484375 -4.988281 8.332031 -4.4375 8.03125 -3.96875 C 7.726562 -3.5 7.296875 -3.140625 6.734375 -2.890625 C 6.171875 -2.640625 5.515625 -2.515625 4.765625 -2.515625 L 2.796875 -2.515625 L 2.796875 0 L 1.171875 0 L 1.171875 -8.734375 Z M 4.6875 -3.890625 C 5.394531 -3.890625 5.929688 -4.035156 6.296875 -4.328125 C 6.660156 -4.628906 6.84375 -5.0625 6.84375 -5.625 C 6.84375 -6.175781 6.660156 -6.601562 6.296875 -6.90625 C 5.929688 -7.207031 5.394531 -7.359375 4.6875 -7.359375 L 2.796875 -7.359375 L 2.796875 -3.890625 Z M 4.6875 -3.890625 "/></g></g></g><g fill="#1f4b8f" fill-opacity="1"><g transform="translate(177.174498, 261.938889)"><g><path d="M 4.015625 0.09375 C 3.335938 0.09375 2.726562 -0.0507812 2.1875 -0.34375 C 1.65625 -0.632812 1.234375 -1.039062 0.921875 -1.5625 C 0.617188 -2.082031 0.46875 -2.671875 0.46875 -3.328125 C 0.46875 -3.984375 0.617188 -4.566406 0.921875 -5.078125 C 1.234375 -5.597656 1.65625 -6.003906 2.1875 -6.296875 C 2.726562 -6.585938 3.335938 -6.734375 4.015625 -6.734375 C 4.691406 -6.734375 5.300781 -6.585938 5.84375 -6.296875 C 6.382812 -6.003906 6.804688 -5.597656 7.109375 -5.078125 C 7.410156 -4.566406 7.5625 -3.984375 7.5625 -3.328125 C 7.5625 -2.671875 7.410156 -2.082031 7.109375 -1.5625 C 6.804688 -1.039062 6.382812 -0.632812 5.84375 -0.34375 C 5.300781 -0.0507812 4.691406 0.09375 4.015625 0.09375 Z M 4.015625 -1.25 C 4.585938 -1.25 5.0625 -1.4375 5.4375 -1.8125 C 5.8125 -2.195312 6 -2.703125 6 -3.328125 C 6 -3.953125 5.8125 -4.453125 5.4375 -4.828125 C 5.0625 -5.210938 4.585938 -5.40625 4.015625 -5.40625 C 3.441406 -5.40625 2.96875 -5.210938 2.59375 -4.828125 C 2.226562 -4.453125 2.046875 -3.953125 2.046875 -3.328125 C 2.046875 -2.703125 2.226562 -2.195312 2.59375 -1.8125 C 2.96875 -1.4375 3.441406 -1.25 4.015625 -1.25 Z M 4.015625 -1.25 "/></g></g></g><g fill="#1f4b8f" fill-opacity="1"><g transform="translate(195.200629, 261.938889)"><g><path d="M 4.015625 0.09375 C 3.335938 0.09375 2.726562 -0.0507812 2.1875 -0.34375 C 1.65625 -0.632812 1.234375 -1.039062 0.921875 -1.5625 C 0.617188 -2.082031 0.46875 -2.671875 0.46875 -3.328125 C 0.46875 -3.984375 0.617188 -4.566406 0.921875 -5.078125 C 1.234375 -5.597656 1.65625 -6.003906 2.1875 -6.296875 C 2.726562 -6.585938 3.335938 -6.734375 4.015625 -6.734375 C 4.691406 -6.734375 5.300781 -6.585938 5.84375 -6.296875 C 6.382812 -6.003906 6.804688 -5.597656 7.109375 -5.078125 C 7.410156 -4.566406 7.5625 -3.984375 7.5625 -3.328125 C 7.5625 -2.671875 7.410156 -2.082031 7.109375 -1.5625 C 6.804688 -1.039062 6.382812 -0.632812 5.84375 -0.34375 C 5.300781 -0.0507812 4.691406 0.09375 4.015625 0.09375 Z M 4.015625 -1.25 C 4.585938 -1.25 5.0625 -1.4375 5.4375 -1.8125 C 5.8125 -2.195312 6 -2.703125 6 -3.328125 C 6 -3.953125 5.8125 -4.453125 5.4375 -4.828125 C 5.0625 -5.210938 4.585938 -5.40625 4.015625 -5.40625 C 3.441406 -5.40625 2.96875 -5.210938 2.59375 -4.828125 C 2.226562 -4.453125 2.046875 -3.953125 2.046875 -3.328125 C 2.046875 -2.703125 2.226562 -2.195312 2.59375 -1.8125 C 2.96875 -1.4375 3.441406 -1.25 4.015625 -1.25 Z M 4.015625 -1.25 "/></g></g></g><g fill="#1f4b8f" fill-opacity="1"><g transform="translate(213.22676, 261.938889)"><g><path d="M 1.015625 -9.25 L 2.578125 -9.25 L 2.578125 0 L 1.015625 0 Z M 1.015625 -9.25 "/></g></g></g></svg>